<?xml version="1.0" encoding="UTF-8" standalone="no"?>
<!-- Created with Inkscape (http://www.inkscape.org/) -->

<svg
   width="33.725578mm"
   height="33.707859mm"
   viewBox="0 0 33.725578 33.707859"
   version="1.1"
   id="svg1"
   xml:space="preserve"
   inkscape:export-filename="estagnou.svg"
   inkscape:export-xdpi="9.6761904"
   inkscape:export-ydpi="9.6761904"
   xmlns:inkscape="http://www.inkscape.org/namespaces/inkscape"
   xmlns:sodipodi="http://sodipodi.sourceforge.net/DTD/sodipodi-0.dtd"
   xmlns="http://www.w3.org/2000/svg"
   xmlns:svg="http://www.w3.org/2000/svg"><sodipodi:namedview
     id="namedview1"
     pagecolor="#ffffff"
     bordercolor="#000000"
     borderopacity="0.25"
     inkscape:showpageshadow="2"
     inkscape:pageopacity="0.0"
     inkscape:pagecheckerboard="0"
     inkscape:deskcolor="#d1d1d1"
     inkscape:document-units="mm" /><defs
     id="defs1" /><g
     inkscape:label="Camada 1"
     inkscape:groupmode="layer"
     id="layer1"
     transform="translate(10.208593,-158.20354)"><g
       id="g64"><g
         id="g61"
         transform="matrix(1,0,0,-1,0,350.11494)"
         style="stroke:none"><path
           id="path60"
           style="fill:#ff00ff;fill-opacity:1;stroke:none;stroke-width:0.343514;stroke-linecap:butt;stroke-linejoin:round;stroke-dasharray:none;paint-order:markers fill stroke"
           d="m 6.5748597,158.25618 -16.7834527,16.33907 h 9.0236697 v 15.23487 H 14.334644 v -15.23487 h 9.023669 z M 23.516986,175.05747 A 16.853931,16.853931 0 0 1 6.6630547,191.9114 16.853931,16.853931 0 0 1 -10.190877,175.05747 16.853931,16.853931 0 0 1 6.6630547,158.20354 16.853931,16.853931 0 0 1 23.516986,175.05747 Z" /><path
           style="fill:#ffffff;fill-opacity:1;stroke:none;stroke-width:0.141421;stroke-linecap:butt;stroke-linejoin:round;stroke-dasharray:none;paint-order:markers fill stroke"
           d="m -0.96305142,182.00641 v -7.60665 l -4.31027408,-0.0328 -4.3102741,-0.0328 8.0829149,-7.86816 8.0829175,-7.86816 6.7978682,6.62068 c 3.738827,3.64138 7.387196,7.19474 8.107487,7.89637 l 1.309621,1.27568 -4.334222,0.003 -4.334219,0.003 v 7.60828 7.60827 H 6.5828572 -0.96305142 Z"
           id="path61" /></g></g></g></svg>
