<?xml version="1.0" encoding="UTF-8" standalone="no"?>
<!-- Created with Inkscape (http://www.inkscape.org/) -->

<svg
   width="33"
   height="33"
   viewBox="0 0 32.126583 33.192791"
   version="1.1"
   id="svg1"
   xml:space="preserve"
   inkscape:export-filename="maisoumenos.svg"
   inkscape:export-xdpi="9.6761904"
   inkscape:export-ydpi="9.6761904"
   xmlns:inkscape="http://www.inkscape.org/namespaces/inkscape"
   xmlns:sodipodi="http://sodipodi.sourceforge.net/DTD/sodipodi-0.dtd"
   xmlns="http://www.w3.org/2000/svg"
   xmlns:svg="http://www.w3.org/2000/svg"><sodipodi:namedview
     id="namedview1"
     pagecolor="#ffffff"
     bordercolor="#000000"
     borderopacity="0.25"
     inkscape:showpageshadow="2"
     inkscape:pageopacity="0.0"
     inkscape:pagecheckerboard="0"
     inkscape:deskcolor="#d1d1d1"
     inkscape:document-units="mm" /><defs
     id="defs1" /><g
     inkscape:label="Camada 1"
     inkscape:groupmode="layer"
     id="layer1"
     transform="translate(-30.075949,-84.593963)"><g
       id="g53"><ellipse
         style="fill:#00ff00;fill-opacity:1;stroke:none;stroke-width:0.15875"
         id="path1"
         cx="46.13924"
         cy="99.973709"
         rx="16.063292"
         ry="15.379746" /><path
         style="fill:none;stroke:#000000;stroke-width:1;stroke-dasharray:none"
         id="ellipse1"
         sodipodi:type="arc"
         sodipodi:cx="46.044304"
         sodipodi:cy="102.60615"
         sodipodi:rx="7.4670157"
         sodipodi:ry="5.9670162"
         sodipodi:start="0"
         sodipodi:end="3.1415927"
         sodipodi:open="true"
         sodipodi:arc-type="arc"
         d="m 53.51132,102.60615 a 7.4670157,5.9670162 0 0 1 -3.733508,5.16759 7.4670157,5.9670162 0 0 1 -7.467016,0 7.4670157,5.9670162 0 0 1 -3.733508,-5.16759" /><ellipse
         style="fill:#000000;stroke:#000000;stroke-width:0.103105"
         id="path2"
         cx="40.616821"
         cy="95.476608"
         rx="1.9484472"
         ry="1.9484475" /><ellipse
         style="fill:#000000;stroke:#000000;stroke-width:0.103105"
         id="ellipse2"
         cx="51.729332"
         cy="95.476608"
         rx="1.9484472"
         ry="1.9484475" /><g
         id="g51"
         transform="rotate(90,92.061031,71.187223)"
         style="fill:#ffffff;stroke-width:0.3;stroke-dasharray:none"><path
           id="path51"
           style="fill:#ffffff;fill-opacity:1;stroke:#000000;stroke-width:0.3;stroke-dasharray:none"
           d="m 133.44275,121.68389 c -0.27178,0.0544 1.17224,-1.02858 1.57839,-0.14683 0.7456,1.61872 0.2989,4.78106 -0.5139,5.72622 -1.01366,1.17872 -1.24895,-0.47086 -1.24895,-0.47086 m 3.64954,-3.98892 c 0,0 0.3749,-0.31567 0.5873,-0.2753 0.29761,0.0566 0.61004,0.3581 0.62401,0.66071 0.0662,1.43343 -0.0683,2.75325 -0.88095,3.96431 -0.12052,0.1796 -0.36278,0.37741 -0.56895,0.312 -0.29209,-0.0927 -0.40377,-0.8259 -0.40377,-0.8259 m -1.0278,-4.47093 c 0,0 0.27539,-0.41706 0.80755,-0.44047 0.43869,-0.0193 0.79327,0.42555 0.80754,0.55059 0.22534,1.97412 0.0714,3.11553 -0.64236,4.4782 -0.20089,0.3835 -0.52209,0.90481 -0.95437,0.88095 -0.30743,-0.017 -0.53225,-0.71577 -0.53225,-0.71577 m 3.38213,-2.42193 c 0,0 0.42496,0.88632 0.40378,1.35814 -0.0564,1.25633 -1.09336,2.28455 -1.39485,3.50547 -0.12536,0.50767 0.1328,1.13032 -0.16518,1.56003 -0.3274,0.47213 -1.23885,0.75248 -1.27556,0.75019 0,0 -2.66101,0.10962 -3.77158,0.0941 -0.50654,-0.007 -0.88337,-0.57962 -1.11955,-1.02779 -0.14117,-0.26789 0.0256,-0.63859 -0.12847,-0.89931 -0.64665,-1.09452 -1.83423,-1.91182 -3.04664,-2.29415 -0.33861,-0.10678 -0.76439,0.22641 -1.06449,0.0367 -0.33815,-0.21376 -0.61496,-0.72562 -0.47718,-1.1012 0.19033,-0.51885 0.93901,-0.65945 1.48661,-0.73413 0.97485,-0.13293 3.065,0.58731 3.065,0.58731 0,0 0.067,-2.4025 0.11011,-3.39535 0.0466,-1.07387 1.30197,-1.92865 2.22074,-1.56003 1.1828,0.47455 0.83241,2.64905 0.64236,3.90924 -0.10935,0.72512 -0.22105,1.98144 -0.95436,1.98215 -0.42138,4.1e-4 -0.46242,-0.72586 -0.5506,-1.1379 -0.17677,-0.8259 0.0734,-2.53275 0.0734,-2.53275" /></g></g></g></svg>
