<?xml version="1.0" encoding="UTF-8" standalone="no"?>
<!-- Created with Inkscape (http://www.inkscape.org/) -->

<svg
   width="33.725578mm"
   height="33.707859mm"
   viewBox="0 0 33.725578 33.707859"
   version="1.1"
   id="svg1"
   xml:space="preserve"
   inkscape:export-filename="subiu.svg"
   inkscape:export-xdpi="9.6761904"
   inkscape:export-ydpi="9.6761904"
   xmlns:inkscape="http://www.inkscape.org/namespaces/inkscape"
   xmlns:sodipodi="http://sodipodi.sourceforge.net/DTD/sodipodi-0.dtd"
   xmlns="http://www.w3.org/2000/svg"
   xmlns:svg="http://www.w3.org/2000/svg"><sodipodi:namedview
     id="namedview1"
     pagecolor="#ffffff"
     bordercolor="#000000"
     borderopacity="0.25"
     inkscape:showpageshadow="2"
     inkscape:pageopacity="0.0"
     inkscape:pagecheckerboard="0"
     inkscape:deskcolor="#d1d1d1"
     inkscape:document-units="mm" /><defs
     id="defs1" /><g
     inkscape:label="Camada 1"
     inkscape:groupmode="layer"
     id="layer1"
     transform="translate(-29.204753,-157.08101)"><g
       id="g65"
       style="stroke:#000000;stroke-opacity:1"><path
         id="path58"
         style="fill:#00ffff;fill-opacity:1;stroke:#000000;stroke-width:0.343514;stroke-linecap:butt;stroke-linejoin:round;stroke-dasharray:none;stroke-opacity:1;paint-order:markers fill stroke"
         d="m 45.988206,157.13365 -16.783453,16.33907 h 9.02367 v 15.23487 H 53.74799 v -15.23487 h 9.023669 z m 16.942126,16.80129 a 16.853931,16.853931 0 0 1 -16.853931,16.85393 16.853931,16.853931 0 0 1 -16.853932,-16.85393 16.853931,16.853931 0 0 1 16.853932,-16.85393 16.853931,16.853931 0 0 1 16.853931,16.85393 z" /><path
         style="fill:#ffffff;fill-opacity:1;stroke:#000000;stroke-width:0.534506;stroke-linecap:butt;stroke-linejoin:round;stroke-dasharray:none;stroke-opacity:1;paint-order:markers fill stroke"
         d="m -294.15642,363.9304 v -28.74957 l -16.2908,-0.12396 -16.2908,-0.12396 30.5496,-29.73793 30.54961,-29.73794 25.69273,25.02307 c 14.131,13.76268 27.92011,27.19272 30.64247,29.84454 l 4.94975,4.82147 -16.38131,0.0113 -16.3813,0.0112 v 28.75568 28.75568 h -28.51998 -28.51997 z"
         id="path59"
         transform="matrix(0.26458333,0,0,0.26458333,116.27918,84.593963)" /></g></g></svg>
